<?xml version="1.0" encoding="UTF-8" standalone="no"?>
<svg
   xmlns:dc="http://purl.org/dc/elements/1.1/"
   xmlns:cc="http://creativecommons.org/ns#"
   xmlns:rdf="http://www.w3.org/1999/02/22-rdf-syntax-ns#"
   xmlns:svg="http://www.w3.org/2000/svg"
   xmlns="http://www.w3.org/2000/svg"
   width="16"
   height="16"
   fill="currentColor"
   class="bi bi-telephone-fill"
   viewBox="0 0 16 16"
   version="1.1"
   id="svg5085">
  <metadata
     id="metadata5091">
    <rdf:RDF>
      <cc:Work
         rdf:about="">
        <dc:format>image/svg+xml</dc:format>
        <dc:type
           rdf:resource="http://purl.org/dc/dcmitype/StillImage" />
        <dc:title></dc:title>
      </cc:Work>
    </rdf:RDF>
  </metadata>
  <defs
     id="defs5089" />
  <g
     id="g13938"
     transform="matrix(1.6666667,0,0,1.6666667,-5.5095406,-12.138667)">
    <rect
       style="opacity:1;fill:#aa0000;fill-opacity:1;fill-rule:evenodd;stroke:none;stroke-width:3.30043;stroke-linecap:round"
       id="rect13931"
       width="30"
       height="30.145632"
       x="8.2643108"
       y="18.208" />
    <g
       id="g6302"
       style="fill:#efc94c;fill-opacity:1"
       transform="matrix(0.50714776,0,0,0.45250463,8.782673,20.345029)">
      <path
         style="fill:#efc94c;fill-opacity:1;fill-rule:evenodd;stroke-width:3.15329"
         id="path5083"
         d="m 19.954236,59.119772 a 5.5024861,5.5024861 0 0 0 5.456103,-6.182988 L 24.270955,43.792741 C 24.061363,42.115999 23.091439,40.628783 21.642127,39.759194 L 15.539409,36.095781 A 2.1379287,2.1379287 0 0 1 14.502594,34.265188 V 23.308389 a 2.1379287,2.1379287 0 0 1 1.039045,-1.832823 l 6.100488,-3.661184 a 5.5024861,5.5024861 0 0 0 2.628828,-4.033546 l 1.141613,-9.1418149 c 0.410268,-3.2865924 -2.15167,-6.1874463 -5.458332,-6.1852169 h -4.611041 c -3.299972,0 -6.4906884,1.74140282 -7.9801351,4.8496201 A 58.758353,58.758353 0 0 0 1.5881091,28.789018 58.758353,58.758353 0 0 0 7.3608303,54.272381 c 1.4894466,3.103759 4.6823927,4.847391 7.9823647,4.847391 z" />
      <path
         d="m 37.446688,-1.6530872 a 5.5024861,5.5024861 0 0 0 -5.456104,6.1829875 l 1.139383,9.1440437 c 0.209599,1.676742 1.179519,3.163958 2.62883,4.033546 l 6.102717,3.663414 a 2.1379287,2.1379287 0 0 1 1.036817,1.830593 v 10.956798 a 2.1379287,2.1379287 0 0 1 -1.039046,1.832822 l -6.100488,3.661184 a 5.5024861,5.5024861 0 0 0 -2.62883,4.033546 l -1.141613,9.141815 c -0.410267,3.286592 2.151671,6.187446 5.458334,6.185217 h 4.611043 c 3.299971,0 6.490688,-1.741403 7.980134,-4.84962 A 58.758353,58.758353 0 0 0 55.812814,28.677663 58.758353,58.758353 0 0 0 50.040094,3.1943035 C 48.550648,0.090545 45.357702,-1.6530872 42.057731,-1.6530872 Z"
         id="path5636"
         style="fill:#efc94c;fill-opacity:1;fill-rule:evenodd;stroke-width:3.15329" />
      <path
         style="fill:#efc94c;fill-opacity:1;stroke-width:0.861536"
         id="path6276"
         d="m 39.771023,28.913641 -0.307886,-0.854282 -1.569663,4.354711 c -0.169047,0.468402 -0.677165,0.781978 -1.263664,0.781978 -0.586499,0 -1.094607,-0.313563 -1.263664,-0.781192 l -1.569662,-4.354712 -1.569662,4.353926 c -0.169048,0.468402 -0.677162,0.781978 -1.263661,0.781978 -0.586499,0 -1.09461,-0.313563 -1.263664,-0.781192 l -1.569662,-4.354712 -1.569664,4.353926 c -0.169048,0.468402 -0.677166,0.781978 -1.263664,0.781978 -0.586499,0 -1.094611,-0.313563 -1.263665,-0.781192 L 22.46318,28.060144 20.893518,32.41407 c -0.169048,0.468402 -0.677165,0.781978 -1.263664,0.781978 -0.586499,0 -1.09461,-0.313563 -1.263664,-0.781192 l -1.569665,-4.354712 -1.928551,5.349671 c -0.122789,0.341085 -0.497721,0.560352 -0.904776,0.560352 -0.08877,0 -0.180399,-0.01104 -0.271056,-0.0338 -0.49961,-0.124965 -0.782943,-0.563496 -0.633723,-0.978456 l 2.474442,-6.863328 c 0.169047,-0.468398 0.677162,-0.781977 1.26366,-0.781977 0.586499,0 1.09461,0.314351 1.263664,0.781192 l 1.569666,4.354712 1.569662,-4.353927 c 0.169048,-0.468398 0.677165,-0.781977 1.263664,-0.781977 0.586499,0 1.094607,0.313594 1.263664,0.781192 l 1.569662,4.354712 1.569663,-4.353927 c 0.169047,-0.468398 0.677165,-0.781977 1.263665,-0.781977 0.586499,0 1.094607,0.313594 1.263665,0.781192 l 1.569662,4.354712 1.569659,-4.353927 c 0.169048,-0.468398 0.677165,-0.781977 1.263664,-0.781977 0.586499,0 1.094607,0.313594 1.263664,0.781192 l 1.569662,4.354712 1.570608,-4.354712 c 0.169048,-0.468402 0.677166,-0.781977 1.263664,-0.781977 0.586496,0 1.094607,0.313563 1.263661,0.781192 l 0.853778,2.368724 c 0.848108,2.35379 0.855556,3.057282 3.978159,4.691375 -3.624259,1.240945 -4.69877,-1.214523 -5.788657,-4.239477 z" />
    </g>
  </g>
</svg>
